<?xml version="1.0" encoding="utf-8"?>
<svg viewBox="0 0 500 500" xmlns="http://www.w3.org/2000/svg" xmlnsBx="https://boxy-svg.com">
  <path style="stroke: rgb(0, 0, 0); fill: rgb(0, 0, 184); visibility: hidden;" d="M 247.256 100 C 247.256 100 310.9677590780905 124.05573965032411 327.735 155.58 C 354.6999047171093 206.27699186439278 368.1494373732728 370.5251937448074 330.583 408.517 C 299.7712433035454 439.67764158978997 191.06237263061766 439.6861329999698 160.417 408.517 C 123.02416182783955 370.4850804576033 137.13119922072346 205.78957491240195 164.71 155.204 C 181.97629922919347 123.5338167999158 247.256 100 247.256 100 C 247.256 100 247.25599999999997 99.99999999999999 247.256 100" bxD="M 247.256 100 R 327.735 155.58 R 330.583 408.517 R 160.417 408.517 R 164.71 155.204 R 247.256 100 Z 1@42b9876b"/>
    <ellipse style="stroke: rgb(0, 0, 0); fill: rgb(0, 197, 197);" cx="245.944" cy="135.504" rx="98.772" ry="91.327"/>
      <polygon style="stroke: rgb(0, 0, 0); fill: rgb(0, 197, 197);" points="186.503 78.337 137.723 44.177 150.726 114.333 176.196 100"/>
      <polyline style="stroke: rgb(0, 0, 0); fill: rgb(0, 197, 197);" points="146.007 65.567 164.608 75.415 165.702 89.274"/>
    
  <ellipse style="fill: rgb(216, 216, 216); stroke: rgb(0, 0, 0); visibility: hidden;" cx="373.367" cy="268.132" rx="73.367" ry="131.868"/>
  <g transform="matrix(1, 0, 0, 1, -12.831993, -153.277283)" style="visibility: hidden;">
    <rect x="140.723" y="364.634" width="17.319" height="40.391" style="fill: rgb(216, 216, 216); stroke: rgb(0, 0, 0);"/>
    <rect x="108.366" y="348.25" width="81.636" height="16.384" style="fill: rgb(216, 216, 216); stroke: rgb(0, 0, 0);"/>
    <polygon style="fill: rgb(216, 216, 216); stroke: rgb(0, 0, 0);" points="141.925 347.821 140.723 234.49 149.828 216.781 158.042 234.49 158.042 348.25"/>
  </g>
</svg>